<svg width="295" height="54" viewBox="0 0 295 54" fill="none" xmlns="http://www.w3.org/2000/svg">
<path d="M60.1 38V16.4H64.18V25.28H73.84V16.4H77.92V38H73.84V29.09H64.18V38H60.1ZM82.1313 38V16.4H96.2313V20.21H86.2113V24.83H94.4313V28.64H86.2113V34.19H96.2313V38H82.1313ZM98.0266 38L105.287 27.08L98.2366 16.4H103.247L107.837 23.6L112.367 16.4H117.407L110.357 27.08L117.587 38H112.577L107.837 30.56L103.067 38H98.0266ZM119.983 38V16.4H123.643L130.783 30.74L137.923 16.4H141.583V38H137.773V25.1L131.503 38H130.063L123.793 25.1V38H119.983ZM150.293 38.45C149.133 38.45 148.148 38.23 147.338 37.79C146.538 37.34 145.928 36.745 145.508 36.005C145.098 35.255 144.893 34.43 144.893 33.53C144.893 32.78 145.008 32.095 145.238 31.475C145.468 30.855 145.838 30.31 146.348 29.84C146.868 29.36 147.563 28.96 148.433 28.64C149.033 28.42 149.748 28.225 150.578 28.055C151.408 27.885 152.348 27.725 153.398 27.575C154.448 27.415 155.603 27.24 156.863 27.05L155.393 27.86C155.393 26.9 155.163 26.195 154.703 25.745C154.243 25.295 153.473 25.07 152.393 25.07C151.793 25.07 151.168 25.215 150.518 25.505C149.868 25.795 149.413 26.31 149.153 27.05L145.463 25.88C145.873 24.54 146.643 23.45 147.773 22.61C148.903 21.77 150.443 21.35 152.393 21.35C153.823 21.35 155.093 21.57 156.203 22.01C157.313 22.45 158.153 23.21 158.723 24.29C159.043 24.89 159.233 25.49 159.293 26.09C159.353 26.69 159.383 27.36 159.383 28.1V38H155.813V34.67L156.323 35.36C155.533 36.45 154.678 37.24 153.758 37.73C152.848 38.21 151.693 38.45 150.293 38.45ZM151.163 35.24C151.913 35.24 152.543 35.11 153.053 34.85C153.573 34.58 153.983 34.275 154.283 33.935C154.593 33.595 154.803 33.31 154.913 33.08C155.123 32.64 155.243 32.13 155.273 31.55C155.313 30.96 155.333 30.47 155.333 30.08L156.533 30.38C155.323 30.58 154.343 30.75 153.593 30.89C152.843 31.02 152.238 31.14 151.778 31.25C151.318 31.36 150.913 31.48 150.563 31.61C150.163 31.77 149.838 31.945 149.588 32.135C149.348 32.315 149.168 32.515 149.048 32.735C148.938 32.955 148.883 33.2 148.883 33.47C148.883 33.84 148.973 34.16 149.153 34.43C149.343 34.69 149.608 34.89 149.948 35.03C150.288 35.17 150.693 35.24 151.163 35.24ZM163.284 38V21.8H166.884V25.76L166.494 25.25C166.704 24.69 166.984 24.18 167.334 23.72C167.684 23.26 168.114 22.88 168.624 22.58C169.014 22.34 169.439 22.155 169.899 22.025C170.359 21.885 170.834 21.8 171.324 21.77C171.814 21.73 172.304 21.74 172.794 21.8V25.61C172.344 25.47 171.819 25.425 171.219 25.475C170.629 25.515 170.094 25.65 169.614 25.88C169.134 26.1 168.729 26.395 168.399 26.765C168.069 27.125 167.819 27.555 167.649 28.055C167.479 28.545 167.394 29.1 167.394 29.72V38H163.284ZM175.617 38L175.647 16.4H179.787V29.6L185.277 21.8H190.317L184.467 29.9L190.707 38H185.397L179.787 30.2V38H175.617ZM199.437 38.45C197.777 38.45 196.312 38.095 195.042 37.385C193.782 36.665 192.792 35.68 192.072 34.43C191.362 33.17 191.007 31.73 191.007 30.11C191.007 28.34 191.357 26.8 192.057 25.49C192.757 24.18 193.722 23.165 194.952 22.445C196.182 21.715 197.597 21.35 199.197 21.35C200.897 21.35 202.342 21.75 203.532 22.55C204.722 23.35 205.602 24.475 206.172 25.925C206.742 27.375 206.942 29.08 206.772 31.04H202.737V29.54C202.737 27.89 202.472 26.705 201.942 25.985C201.422 25.255 200.567 24.89 199.377 24.89C197.987 24.89 196.962 25.315 196.302 26.165C195.652 27.005 195.327 28.25 195.327 29.9C195.327 31.41 195.652 32.58 196.302 33.41C196.962 34.23 197.927 34.64 199.197 34.64C199.997 34.64 200.682 34.465 201.252 34.115C201.822 33.765 202.257 33.26 202.557 32.6L206.637 33.77C206.027 35.25 205.062 36.4 203.742 37.22C202.432 38.04 200.997 38.45 199.437 38.45ZM194.067 31.04V28.01H204.807V31.04H194.067ZM219.879 38C218.759 38.21 217.659 38.3 216.579 38.27C215.509 38.25 214.549 38.065 213.699 37.715C212.859 37.355 212.219 36.78 211.779 35.99C211.379 35.25 211.169 34.5 211.149 33.74C211.129 32.97 211.119 32.1 211.119 31.13V17.3H215.199V30.89C215.199 31.52 215.204 32.09 215.214 32.6C215.234 33.1 215.339 33.5 215.529 33.8C215.889 34.37 216.464 34.68 217.254 34.73C218.044 34.78 218.919 34.74 219.879 34.61V38ZM208.359 24.95V21.8H219.879V24.95H208.359ZM224.149 38V33.92H228.229V38H224.149ZM240.238 38.45C238.558 38.45 237.118 38.075 235.918 37.325C234.718 36.575 233.798 35.555 233.158 34.265C232.518 32.975 232.198 31.52 232.198 29.9C232.198 28.26 232.528 26.795 233.188 25.505C233.858 24.215 234.798 23.2 236.008 22.46C237.218 21.72 238.648 21.35 240.298 21.35C242.208 21.35 243.808 21.835 245.098 22.805C246.398 23.765 247.228 25.08 247.588 26.75L243.508 27.83C243.268 26.99 242.848 26.335 242.248 25.865C241.658 25.395 240.988 25.16 240.238 25.16C239.378 25.16 238.673 25.37 238.123 25.79C237.573 26.2 237.168 26.765 236.908 27.485C236.648 28.195 236.518 29 236.518 29.9C236.518 31.31 236.828 32.455 237.448 33.335C238.078 34.205 239.008 34.64 240.238 34.64C241.158 34.64 241.858 34.43 242.338 34.01C242.818 33.59 243.178 32.99 243.418 32.21L247.588 33.08C247.128 34.8 246.258 36.125 244.978 37.055C243.698 37.985 242.118 38.45 240.238 38.45ZM257.439 38.45C255.809 38.45 254.379 38.085 253.149 37.355C251.919 36.625 250.959 35.62 250.269 34.34C249.589 33.05 249.249 31.57 249.249 29.9C249.249 28.21 249.599 26.725 250.299 25.445C250.999 24.155 251.964 23.15 253.194 22.43C254.424 21.71 255.839 21.35 257.439 21.35C259.069 21.35 260.499 21.715 261.729 22.445C262.969 23.175 263.934 24.185 264.624 25.475C265.314 26.755 265.659 28.23 265.659 29.9C265.659 31.58 265.309 33.065 264.609 34.355C263.919 35.635 262.954 36.64 261.714 37.37C260.484 38.09 259.059 38.45 257.439 38.45ZM257.439 34.64C258.749 34.64 259.724 34.2 260.364 33.32C261.014 32.43 261.339 31.29 261.339 29.9C261.339 28.46 261.009 27.31 260.349 26.45C259.699 25.59 258.729 25.16 257.439 25.16C256.549 25.16 255.819 25.36 255.249 25.76C254.679 26.16 254.254 26.715 253.974 27.425C253.704 28.135 253.569 28.96 253.569 29.9C253.569 31.35 253.894 32.505 254.544 33.365C255.204 34.215 256.169 34.64 257.439 34.64ZM288.457 38V28.43C288.457 27.36 288.202 26.53 287.692 25.94C287.192 25.34 286.497 25.04 285.607 25.04C285.037 25.04 284.542 25.175 284.122 25.445C283.702 25.705 283.372 26.075 283.132 26.555C282.902 27.025 282.787 27.57 282.787 28.19L281.077 27.05C281.077 25.94 281.337 24.96 281.857 24.11C282.387 23.26 283.092 22.6 283.972 22.13C284.862 21.65 285.847 21.41 286.927 21.41C288.777 21.41 290.172 21.96 291.112 23.06C292.062 24.15 292.537 25.58 292.537 27.35V38H288.457ZM268.927 38V21.8H272.527V27.17H273.037V38H268.927ZM278.707 38V28.43C278.707 27.36 278.452 26.53 277.942 25.94C277.442 25.34 276.747 25.04 275.857 25.04C275.007 25.04 274.322 25.335 273.802 25.925C273.292 26.505 273.037 27.26 273.037 28.19L271.327 26.99C271.327 25.93 271.592 24.98 272.122 24.14C272.652 23.3 273.362 22.635 274.252 22.145C275.152 21.655 276.157 21.41 277.267 21.41C278.537 21.41 279.577 21.68 280.387 22.22C281.207 22.76 281.812 23.48 282.202 24.38C282.592 25.28 282.787 26.27 282.787 27.35V38H278.707Z" fill="black"/>
<g clip-path="url(#clip0_62_105)">
<path d="M20.3992 8.32014C19.9576 8.32014 19.5341 8.49977 19.2219 8.81951C18.9097 9.13925 18.7343 9.57291 18.7343 10.0251V25.1096H8.74489V17.9062C8.74489 17.454 8.56948 17.0204 8.25726 16.7006C7.94503 16.3809 7.52155 16.2013 7.08 16.2013C6.63844 16.2013 6.21496 16.3809 5.90274 16.7006C5.59051 17.0204 5.4151 17.454 5.4151 17.9062V26.6739C5.4151 26.7251 5.4151 26.7762 5.4151 26.8316C5.4151 26.887 5.4151 26.9339 5.4151 26.9851V36.0554C5.4151 36.5076 5.59051 36.9412 5.90274 37.261C6.21496 37.5807 6.63844 37.7604 7.08 37.7604C7.52155 37.7604 7.94503 37.5807 8.25726 37.261C8.56948 36.9412 8.74489 36.5076 8.74489 36.0554V28.5494H18.7343V43.9578C18.7343 44.4134 18.911 44.8503 19.2256 45.1725C19.5401 45.4946 19.9668 45.6756 20.4117 45.6756C20.8565 45.6756 21.2832 45.4946 21.5977 45.1725C21.9123 44.8503 22.089 44.4134 22.089 43.9578V10.0421C22.0913 9.81465 22.049 9.589 21.9648 9.37847C21.8806 9.16795 21.7561 8.97682 21.5986 8.81635C21.4411 8.65587 21.2538 8.5293 21.0479 8.44408C20.8419 8.35886 20.6213 8.31672 20.3992 8.32014Z" fill="#5E72E4"/>
<path d="M46.9292 13.4222L23.4251 0L0.00415039 13.5458L0.0749013 40.5778L23.5749 54L47.0041 40.4542L46.9292 13.4222ZM23.5583 49.4137L3.99575 38.242L3.93747 15.8603L23.4375 4.58205L43.0001 15.758L43.0583 38.1397L23.5583 49.4137Z" fill="#5E72E4"/>
<path d="M40.1365 16.9514C39.8016 16.8443 39.4421 16.8504 39.1108 16.9685C38.7795 17.0867 38.4942 17.3109 38.2968 17.6078L33.5393 24.7132L28.1284 10.2211C27.9895 9.85627 27.7307 9.55242 27.3966 9.36189C27.0625 9.17135 26.674 9.10604 26.2979 9.1772C25.9219 9.24837 25.5818 9.45155 25.3363 9.75178C25.0907 10.052 24.9551 10.4305 24.9526 10.8221V44.0345C24.9414 44.2625 24.9756 44.4904 25.053 44.7044C25.1305 44.9184 25.2496 45.114 25.4032 45.2794C25.5568 45.4448 25.7416 45.5765 25.9464 45.6665C26.1512 45.7565 26.3718 45.8029 26.5946 45.8029C26.8175 45.8029 27.0381 45.7565 27.2429 45.6665C27.4477 45.5765 27.6325 45.4448 27.7861 45.2794C27.9396 45.114 28.0588 44.9184 28.1362 44.7044C28.2137 44.4904 28.2479 44.2625 28.2367 44.0345V19.9521L31.5664 28.9244C31.6729 29.2115 31.8541 29.4633 32.0905 29.6523C32.3269 29.8413 32.6094 29.9603 32.9072 29.9963C33.2051 30.0323 33.5068 29.9841 33.7797 29.8567C34.0526 29.7293 34.2862 29.5278 34.455 29.2739L38.0012 24.0014V36.3282C38.0007 36.5491 38.0427 36.7679 38.1249 36.9721C38.2071 37.1764 38.3278 37.362 38.4801 37.5184C38.6324 37.6748 38.8134 37.7989 39.0126 37.8836C39.2119 37.9682 39.4255 38.0118 39.6412 38.0118C39.8567 38.0124 40.0702 37.9693 40.2694 37.8851C40.4686 37.8009 40.6496 37.6772 40.802 37.5212C40.9544 37.3651 41.0752 37.1798 41.1574 36.9758C41.2396 36.7718 41.2816 36.5531 41.2811 36.3324V18.5711C41.2811 18.2121 41.1705 17.8622 40.965 17.5714C40.7594 17.2806 40.4695 17.0636 40.1365 16.9514Z" fill="#5E72E4"/>
</g>
<defs>
<clipPath id="clip0_62_105">
<rect width="47" height="54" fill="white"/>
</clipPath>
</defs>
</svg>
